# xmcd
#
# Track frame offsets: 
#        150
#        15683
#        33167
#        51322
#        60581
#        74644
#
# Disc length: 1135 seconds
#
# Revision: 0
# Processed by: cddbd v1.5.2PL0 Copyright (c) Steve Scherf et al.
# Submitted via: ExactAudioCopy v0.95b4
#
DISCID=4f046d06
DTITLE=Sameli Rajala and The Backstrokes - Cuttin' Down
DYEAR=2005
DGENRE=Bluesrock
TTITLE0=Believe It Baby
TTITLE1=Shake and Bake
TTITLE2=Follow Your Heart
TTITLE3=Okie Dokie Stomp
TTITLE4=World Keep On Turning
TTITLE5=Rumble
EXTD=
EXTT0=
EXTT1=
EXTT2=
EXTT3=
EXTT4=
EXTT5=
PLAYORDER=
